%TF.GenerationSoftware,KiCad,Pcbnew,9.0.1*%
%TF.CreationDate,2025-04-10T10:30:44+01:00*%
%TF.ProjectId,8pin_SOIC_DIP_castellated,3870696e-5f53-44f4-9943-5f4449505f63,rev?*%
%TF.SameCoordinates,Original*%
%TF.FileFunction,Legend,Top*%
%TF.FilePolarity,Positive*%
%FSLAX46Y46*%
G04 Gerber Fmt 4.6, Leading zero omitted, Abs format (unit mm)*
G04 Created by KiCad (PCBNEW 9.0.1) date 2025-04-10 10:30:44*
%MOMM*%
%LPD*%
G01*
G04 APERTURE LIST*
%ADD10C,0.203200*%
%ADD11C,0.150000*%
%ADD12C,0.152400*%
G04 APERTURE END LIST*
D10*
X146501809Y-97441010D02*
X146646952Y-97489390D01*
X146646952Y-97489390D02*
X146888857Y-97489390D01*
X146888857Y-97489390D02*
X146985619Y-97441010D01*
X146985619Y-97441010D02*
X147034000Y-97392629D01*
X147034000Y-97392629D02*
X147082381Y-97295867D01*
X147082381Y-97295867D02*
X147082381Y-97199105D01*
X147082381Y-97199105D02*
X147034000Y-97102343D01*
X147034000Y-97102343D02*
X146985619Y-97053962D01*
X146985619Y-97053962D02*
X146888857Y-97005581D01*
X146888857Y-97005581D02*
X146695333Y-96957200D01*
X146695333Y-96957200D02*
X146598571Y-96908819D01*
X146598571Y-96908819D02*
X146550190Y-96860438D01*
X146550190Y-96860438D02*
X146501809Y-96763676D01*
X146501809Y-96763676D02*
X146501809Y-96666914D01*
X146501809Y-96666914D02*
X146550190Y-96570152D01*
X146550190Y-96570152D02*
X146598571Y-96521771D01*
X146598571Y-96521771D02*
X146695333Y-96473390D01*
X146695333Y-96473390D02*
X146937238Y-96473390D01*
X146937238Y-96473390D02*
X147082381Y-96521771D01*
X147711333Y-96473390D02*
X147904857Y-96473390D01*
X147904857Y-96473390D02*
X148001619Y-96521771D01*
X148001619Y-96521771D02*
X148098381Y-96618533D01*
X148098381Y-96618533D02*
X148146762Y-96812057D01*
X148146762Y-96812057D02*
X148146762Y-97150724D01*
X148146762Y-97150724D02*
X148098381Y-97344248D01*
X148098381Y-97344248D02*
X148001619Y-97441010D01*
X148001619Y-97441010D02*
X147904857Y-97489390D01*
X147904857Y-97489390D02*
X147711333Y-97489390D01*
X147711333Y-97489390D02*
X147614571Y-97441010D01*
X147614571Y-97441010D02*
X147517809Y-97344248D01*
X147517809Y-97344248D02*
X147469428Y-97150724D01*
X147469428Y-97150724D02*
X147469428Y-96812057D01*
X147469428Y-96812057D02*
X147517809Y-96618533D01*
X147517809Y-96618533D02*
X147614571Y-96521771D01*
X147614571Y-96521771D02*
X147711333Y-96473390D01*
X148582190Y-97489390D02*
X148582190Y-96473390D01*
X149646572Y-97392629D02*
X149598191Y-97441010D01*
X149598191Y-97441010D02*
X149453048Y-97489390D01*
X149453048Y-97489390D02*
X149356286Y-97489390D01*
X149356286Y-97489390D02*
X149211143Y-97441010D01*
X149211143Y-97441010D02*
X149114381Y-97344248D01*
X149114381Y-97344248D02*
X149066000Y-97247486D01*
X149066000Y-97247486D02*
X149017619Y-97053962D01*
X149017619Y-97053962D02*
X149017619Y-96908819D01*
X149017619Y-96908819D02*
X149066000Y-96715295D01*
X149066000Y-96715295D02*
X149114381Y-96618533D01*
X149114381Y-96618533D02*
X149211143Y-96521771D01*
X149211143Y-96521771D02*
X149356286Y-96473390D01*
X149356286Y-96473390D02*
X149453048Y-96473390D01*
X149453048Y-96473390D02*
X149598191Y-96521771D01*
X149598191Y-96521771D02*
X149646572Y-96570152D01*
X150227143Y-96908819D02*
X150130381Y-96860438D01*
X150130381Y-96860438D02*
X150082000Y-96812057D01*
X150082000Y-96812057D02*
X150033619Y-96715295D01*
X150033619Y-96715295D02*
X150033619Y-96666914D01*
X150033619Y-96666914D02*
X150082000Y-96570152D01*
X150082000Y-96570152D02*
X150130381Y-96521771D01*
X150130381Y-96521771D02*
X150227143Y-96473390D01*
X150227143Y-96473390D02*
X150420667Y-96473390D01*
X150420667Y-96473390D02*
X150517429Y-96521771D01*
X150517429Y-96521771D02*
X150565810Y-96570152D01*
X150565810Y-96570152D02*
X150614191Y-96666914D01*
X150614191Y-96666914D02*
X150614191Y-96715295D01*
X150614191Y-96715295D02*
X150565810Y-96812057D01*
X150565810Y-96812057D02*
X150517429Y-96860438D01*
X150517429Y-96860438D02*
X150420667Y-96908819D01*
X150420667Y-96908819D02*
X150227143Y-96908819D01*
X150227143Y-96908819D02*
X150130381Y-96957200D01*
X150130381Y-96957200D02*
X150082000Y-97005581D01*
X150082000Y-97005581D02*
X150033619Y-97102343D01*
X150033619Y-97102343D02*
X150033619Y-97295867D01*
X150033619Y-97295867D02*
X150082000Y-97392629D01*
X150082000Y-97392629D02*
X150130381Y-97441010D01*
X150130381Y-97441010D02*
X150227143Y-97489390D01*
X150227143Y-97489390D02*
X150420667Y-97489390D01*
X150420667Y-97489390D02*
X150517429Y-97441010D01*
X150517429Y-97441010D02*
X150565810Y-97392629D01*
X150565810Y-97392629D02*
X150614191Y-97295867D01*
X150614191Y-97295867D02*
X150614191Y-97102343D01*
X150614191Y-97102343D02*
X150565810Y-97005581D01*
X150565810Y-97005581D02*
X150517429Y-96957200D01*
X150517429Y-96957200D02*
X150420667Y-96908819D01*
X146259904Y-98447760D02*
X146646952Y-98447760D01*
X146405047Y-98109093D02*
X146405047Y-98979951D01*
X146405047Y-98979951D02*
X146453428Y-99076713D01*
X146453428Y-99076713D02*
X146550190Y-99125093D01*
X146550190Y-99125093D02*
X146646952Y-99125093D01*
X147130761Y-99125093D02*
X147033999Y-99076713D01*
X147033999Y-99076713D02*
X146985618Y-99028332D01*
X146985618Y-99028332D02*
X146937237Y-98931570D01*
X146937237Y-98931570D02*
X146937237Y-98641284D01*
X146937237Y-98641284D02*
X146985618Y-98544522D01*
X146985618Y-98544522D02*
X147033999Y-98496141D01*
X147033999Y-98496141D02*
X147130761Y-98447760D01*
X147130761Y-98447760D02*
X147275904Y-98447760D01*
X147275904Y-98447760D02*
X147372666Y-98496141D01*
X147372666Y-98496141D02*
X147421047Y-98544522D01*
X147421047Y-98544522D02*
X147469428Y-98641284D01*
X147469428Y-98641284D02*
X147469428Y-98931570D01*
X147469428Y-98931570D02*
X147421047Y-99028332D01*
X147421047Y-99028332D02*
X147372666Y-99076713D01*
X147372666Y-99076713D02*
X147275904Y-99125093D01*
X147275904Y-99125093D02*
X147130761Y-99125093D01*
X148678951Y-99125093D02*
X148678951Y-98109093D01*
X148678951Y-98109093D02*
X148920856Y-98109093D01*
X148920856Y-98109093D02*
X149065999Y-98157474D01*
X149065999Y-98157474D02*
X149162761Y-98254236D01*
X149162761Y-98254236D02*
X149211142Y-98350998D01*
X149211142Y-98350998D02*
X149259523Y-98544522D01*
X149259523Y-98544522D02*
X149259523Y-98689665D01*
X149259523Y-98689665D02*
X149211142Y-98883189D01*
X149211142Y-98883189D02*
X149162761Y-98979951D01*
X149162761Y-98979951D02*
X149065999Y-99076713D01*
X149065999Y-99076713D02*
X148920856Y-99125093D01*
X148920856Y-99125093D02*
X148678951Y-99125093D01*
X149694951Y-99125093D02*
X149694951Y-98109093D01*
X150178761Y-99125093D02*
X150178761Y-98109093D01*
X150178761Y-98109093D02*
X150565809Y-98109093D01*
X150565809Y-98109093D02*
X150662571Y-98157474D01*
X150662571Y-98157474D02*
X150710952Y-98205855D01*
X150710952Y-98205855D02*
X150759333Y-98302617D01*
X150759333Y-98302617D02*
X150759333Y-98447760D01*
X150759333Y-98447760D02*
X150710952Y-98544522D01*
X150710952Y-98544522D02*
X150662571Y-98592903D01*
X150662571Y-98592903D02*
X150565809Y-98641284D01*
X150565809Y-98641284D02*
X150178761Y-98641284D01*
D11*
X146053180Y-93570588D02*
X146053180Y-92999160D01*
X146053180Y-93284874D02*
X147053180Y-93284874D01*
X147053180Y-93284874D02*
X146910323Y-93189636D01*
X146910323Y-93189636D02*
X146815085Y-93094398D01*
X146815085Y-93094398D02*
X146767466Y-92999160D01*
D12*
X146914809Y-102737735D02*
X146914809Y-101721735D01*
X147834048Y-102737735D02*
X147834048Y-102205545D01*
X147834048Y-102205545D02*
X147785667Y-102108783D01*
X147785667Y-102108783D02*
X147688905Y-102060402D01*
X147688905Y-102060402D02*
X147495381Y-102060402D01*
X147495381Y-102060402D02*
X147398619Y-102108783D01*
X147834048Y-102689355D02*
X147737286Y-102737735D01*
X147737286Y-102737735D02*
X147495381Y-102737735D01*
X147495381Y-102737735D02*
X147398619Y-102689355D01*
X147398619Y-102689355D02*
X147350238Y-102592593D01*
X147350238Y-102592593D02*
X147350238Y-102495831D01*
X147350238Y-102495831D02*
X147398619Y-102399069D01*
X147398619Y-102399069D02*
X147495381Y-102350688D01*
X147495381Y-102350688D02*
X147737286Y-102350688D01*
X147737286Y-102350688D02*
X147834048Y-102302307D01*
X148317857Y-102060402D02*
X148317857Y-102737735D01*
X148317857Y-102157164D02*
X148366238Y-102108783D01*
X148366238Y-102108783D02*
X148463000Y-102060402D01*
X148463000Y-102060402D02*
X148608143Y-102060402D01*
X148608143Y-102060402D02*
X148704905Y-102108783D01*
X148704905Y-102108783D02*
X148753286Y-102205545D01*
X148753286Y-102205545D02*
X148753286Y-102737735D01*
X149237095Y-102640974D02*
X149285476Y-102689355D01*
X149285476Y-102689355D02*
X149237095Y-102737735D01*
X149237095Y-102737735D02*
X149188714Y-102689355D01*
X149188714Y-102689355D02*
X149237095Y-102640974D01*
X149237095Y-102640974D02*
X149237095Y-102737735D01*
X150011191Y-101721735D02*
X150011191Y-102447450D01*
X150011191Y-102447450D02*
X149962810Y-102592593D01*
X149962810Y-102592593D02*
X149866048Y-102689355D01*
X149866048Y-102689355D02*
X149720905Y-102737735D01*
X149720905Y-102737735D02*
X149624143Y-102737735D01*
D11*
X150894411Y-94735180D02*
X151465839Y-94735180D01*
X151180125Y-94735180D02*
X151180125Y-95735180D01*
X151180125Y-95735180D02*
X151275363Y-95592323D01*
X151275363Y-95592323D02*
X151370601Y-95497085D01*
X151370601Y-95497085D02*
X151465839Y-95449466D01*
M02*
